<?xml version="1.0" encoding="UTF-8" standalone="no"?>
<!-- Created with Inkscape (http://www.inkscape.org/) -->

<svg
   id="svg4196"
   version="1.1"
   inkscape:version="1.1 (c68e22c387, 2021-05-23)"
   width="351.5625"
   height="280.3125"
   viewBox="0 0 351.5625 280.3125"
   sodipodi:docname="Feather.svg"
   xmlns:inkscape="http://www.inkscape.org/namespaces/inkscape"
   xmlns:sodipodi="http://sodipodi.sourceforge.net/DTD/sodipodi-0.dtd"
   xmlns="http://www.w3.org/2000/svg"
   xmlns:svg="http://www.w3.org/2000/svg"
   xmlns:rdf="http://www.w3.org/1999/02/22-rdf-syntax-ns#"
   xmlns:cc="http://creativecommons.org/ns#"
   xmlns:dc="http://purl.org/dc/elements/1.1/">
  <metadata
     id="metadata4202">
    <rdf:RDF>
      <cc:Work
         rdf:about="">
        <dc:format>image/svg+xml</dc:format>
        <dc:type
           rdf:resource="http://purl.org/dc/dcmitype/StillImage" />
      </cc:Work>
    </rdf:RDF>
  </metadata>
  <defs
     id="defs4200" />
  <sodipodi:namedview
     pagecolor="#ffffff"
     bordercolor="#666666"
     borderopacity="1"
     objecttolerance="10"
     gridtolerance="10"
     guidetolerance="10"
     inkscape:pageopacity="0"
     inkscape:pageshadow="2"
     inkscape:window-width="2560"
     inkscape:window-height="1361"
     id="namedview4198"
     showgrid="false"
     inkscape:zoom="2.3901895"
     inkscape:cx="175.5091"
     inkscape:cy="139.94706"
     inkscape:window-x="2551"
     inkscape:window-y="-9"
     inkscape:window-maximized="1"
     inkscape:current-layer="svg4196"
     inkscape:pagecheckerboard="0" />
  <path
     id="path4206"
     style="fill:#000000"
     d="m 17.160742,30.926465 c 10.56007,22.28383 14.86324,30.46639 16.02213,30.46639 9.47946,0 27.11056,17.44286 27.17582,26.88566 0.0202,2.91681 0.13261,2.99342 5.35108,3.64542 8.85884,1.10685 21.85701,9.679475 21.85701,14.415265 0,0.53029 2.63672,2.29503 5.85938,3.92163 7.757688,3.91564 11.019328,6.51615 13.737188,10.95265 1.84126,3.00558 3.20764,3.97837 7.47929,5.3249 7.04349,2.22026 10.37642,4.96635 15.72302,12.95458 2.48247,3.70901 4.88208,7.00732 5.33245,7.32959 0.45485,0.32548 0.41902,0.83305 -0.0806,1.14184 -1.32393,0.81824 -3.28703,-1.11895 -6.73624,-6.64725 -5.19391,-8.3247 -11.03106,-11.48678 -21.20435,-11.48678 -3.72715,0 -4.13358,-1.13937 -1.15151,-3.22809 1.14598,-0.80267 1.59628,-1.45941 1.00067,-1.45941 -0.5956,0 -1.33718,-0.80112 -1.64795,-1.78027 -0.83525,-2.63162 -5.18251,-6.65723 -7.189158,-6.65723 -0.96093,0 -2.61982,-0.87266 -3.68642,-1.93926 -2.25135,-2.25135 -8.45323,-4.63071 -12.00674,-4.60641 -2.22429,0.0152 -1.71845,0.74017 5.27413,7.55888 4.2539,4.14813 7.73437,7.7265 7.73437,7.95192 0,1.3697 -2.91728,-0.15565 -6.5625,-3.43131 -5.28096,-4.74558 -7.35783,-6.57256 -15.15478,-13.33144 -3.4367,-2.97913 -8.02315,-7.71684 -10.19214,-10.528245 -2.16898,-2.8114 -4.5251,-5.11164 -5.23584,-5.11164 -0.71073,0 -1.31359,-0.31641 -1.33968,-0.70312 -0.0261,-0.38672 -0.14555,-2.63228 -0.26547,-4.99013 -0.35091,-6.89938 -8.17336,-15.86386 -18.29593,-20.96702 -9.39163,-4.73466 -5.53075,4.05634 5.12992,11.68055 3.78043,2.70365 6.63465,5.30217 6.34275,5.77449 -0.30192,0.48851 -1.00004,0.50986 -1.61917,0.0495 -0.59862,-0.44509 -2.88138,-2.18852 -5.07278,-3.8743 -2.19141,-1.68578 -3.98438,-2.85364 -3.98438,-2.59525 0,4.69048 23.29943,44.168655 35.78013,60.625255 0.97762,1.28906 3.13563,4.2258 4.79555,6.52609 15.49079,21.46663 49.748248,52.68405 59.659538,54.3653 4.24643,0.72031 5.39876,1.23797 12.73353,5.72026 2.0625,1.26039 4.17188,2.30176 4.6875,2.31415 0.51563,0.0124 0.83127,0.67411 0.70144,1.47049 -0.15792,0.96844 2.17066,2.64564 7.03122,5.0644 3.99702,1.98904 7.90012,3.96739 8.67356,4.39634 0.77344,0.42894 2.03906,1.01895 2.8125,1.31112 0.77344,0.29217 2.1388,0.9223 3.03415,1.40028 2.95814,1.57922 4.03854,0.84116 1.66229,-1.13556 -2.91312,-2.42334 -11.66962,-6.91832 -10.82963,-5.55919 0.34037,0.55075 0.18871,1.00135 -0.33702,1.00135 -0.95943,0 -1.73489,-0.74141 -4.41253,-4.21875 -0.79409,-1.03125 -1.13237,-1.27597 -0.75174,-0.54381 0.51411,0.98889 0.27119,1.16969 -0.94465,0.70312 -0.9002,-0.34543 -1.83805,-0.62806 -2.08412,-0.62806 -0.24608,0 -0.14237,-0.49357 0.23047,-1.09682 0.44723,-0.72364 0.17851,-0.9052 -0.7898,-0.53362 -0.9151,0.35115 -1.62318,-0.0315 -1.88073,-1.01635 -0.22717,-0.86875 -3.22188,-3.04995 -6.65487,-4.84712 -3.433,-1.79716 -6.24182,-3.59408 -6.24182,-3.99316 0,-1.01372 4.75063,1.09751 13.94222,6.19605 4.31665,2.39443 8.18384,4.35352 8.59374,4.35352 0.40992,0 0.88591,0.36996 1.05779,0.82214 0.50598,1.33116 13.93291,7.74782 15.55567,7.43397 0.8358,-0.16165 -0.84926,-1.46855 -3.85182,-2.98739 -2.93569,-1.48501 -5.53557,-3.02031 -5.7775,-3.41177 -0.24194,-0.39146 -1.50575,-0.97926 -2.80848,-1.30622 -2.75086,-0.69043 -10.86312,-5.70763 -18.34028,-11.34296 -2.87232,-2.1648 -6.69187,-4.21166 -8.4879,-4.5486 -4.16822,-0.78196 -16.16159,-4.69311 -21.79184,-7.10652 -5.41694,-2.32197 -5.81637,-4.23981 -0.49177,-2.36118 2.11739,0.74706 4.13823,1.18005 4.49073,0.96218 0.59215,-0.36596 23.16508,4.23929 26.34694,5.37521 5.24735,1.8733 7.03913,1.8017 5.21987,-0.20857 -2.59769,-2.87042 -0.64655,-2.37201 5.13607,1.31196 7.31786,4.66204 9.89899,4.30847 3.82903,-0.5245 -2.64549,-2.10637 -4.80997,-4.13811 -4.80997,-4.51499 0,-0.37688 -2.42578,-1.66241 -5.39062,-2.85674 -7.53739,-3.03628 -21.33017,-10.01684 -27.20571,-13.76886 -2.71704,-1.73506 -5.17097,-3.15466 -5.45318,-3.15466 -0.2822,0 -1.85604,-1.01082 -3.49742,-2.24628 -1.64137,-1.23544 -8.04682,-4.87646 -14.23432,-8.09113 -6.1875,-3.21468 -11.882808,-6.33533 -12.656248,-6.93479 -0.77344,-0.59946 -2.56641,-1.67035 -3.98437,-2.37978 -1.41797,-0.70942 -2.57813,-1.83118 -2.57813,-2.4928 0,-0.83414 1.36527,-0.51786 4.45313,1.03161 2.44921,1.22902 8.039058,3.97754 12.421868,6.10782 9.72235,4.72559 11.37023,5.66642 22.03125,12.57842 12.20436,7.9126 12.08093,7.84005 22.41661,13.17662 5.20211,2.68599 10.61855,5.17102 12.03652,5.52231 1.41796,0.3513 2.57812,1.0279 2.57812,1.50356 0,2.23747 15.61272,12.49281 24.33712,15.98604 2.34115,0.93739 6.72157,2.80682 9.73426,4.15428 3.01271,1.34746 5.32081,1.97944 5.12912,1.40438 -0.19168,-0.57505 -2.44568,-1.79793 -5.00888,-2.71751 -6.166,-2.21213 -26.57226,-14.86425 -31.37912,-19.45542 -1.59415,-1.52262 2.87446,0.0807 5.625,2.01832 0.77344,0.54483 2.27215,1.46948 3.33048,2.05479 1.05832,0.5853 6.33176,3.57436 11.71875,6.64235 10.85212,6.18048 15.22837,8.13842 16.92577,7.57262 0.62304,-0.20768 -3.89068,-3.22108 -10.03048,-6.69644 -13.2591,-7.50517 -22.21274,-13.73897 -19.73334,-13.73897 0.94497,0 2.96769,0.88977 4.49494,1.97727 3.25762,2.31962 3.99676,1.98405 2.76512,-1.25539 -1.52137,-4.00152 -12.12687,-10.09688 -17.56785,-10.09688 -3.45947,0 -7.76797,-3.03214 -8.81455,-6.20332 -2.22594,-6.74466 -12.96698,-14.42168 -20.17763,-14.42168 -1.53707,0 -2.29783,-0.4344 -2.05228,-1.17187 1.99692,-5.99746 21.56515,6.26701 24.23913,15.19198 0.71883,2.39922 1.56073,3.35945 3.02699,3.45239 9.72572,0.61647 20.61678,6.47093 23.07291,12.40279 1.00124,2.41812 1.17708,2.46235 8.62371,2.16918 7.5124,-0.29577 9.30686,0.0842 17.43374,3.6915 4.74933,2.10811 6.80709,2.23702 6.80709,0.42644 0,-2.00748 5.58274,-4.44567 8.64118,-3.77393 1.90063,0.41745 2.60882,0.21048 2.60882,-0.76245 0,-3.97787 9.59281,-6.13 13.64894,-3.0621 2.72261,2.05928 3.22606,1.76171 3.22606,-1.90681 0,-4.74131 1.16462,-6.52914 9.4906,-14.56915 6.77522,-6.54253 7.3844,-7.43679 7.3844,-10.84023 0,-4.71292 3.77784,-8.74774 8.19059,-8.74774 2.7598,0 6.80941,-3.72554 6.80941,-6.2645 0,-1.51419 3.75139,-4.048 5.9932,-4.048 1.44227,0 3.10996,-1.16449 4.75339,-3.31913 l 2.53163,-3.31914 5.78276,0.63767 c 3.18053,0.35073 6.67588,0.96881 7.76746,1.37353 1.09158,0.40472 3.53814,0.38549 5.43679,-0.0427 5.78768,-1.30534 9.66526,0.38176 12.92325,5.62277 2.1099,3.39413 3.59773,4.73449 5.77956,5.20672 4.48841,0.97148 7.45806,3.53193 9.88321,8.52139 1.21306,2.49573 2.69511,4.95956 3.29343,5.47519 4.97791,4.28983 6.63657,8.25513 6.63657,15.86579 0,5.70306 0.40489,8.1437 1.64063,9.88964 3.06253,4.32692 0.0603,20.65077 -3.79804,20.65077 -1.88063,0 -4.07119,6.05688 -4.32639,11.96242 -0.34968,8.09173 -5.31016,18.33205 -9.09975,18.78536 -1.90517,0.2279 -2.54643,1.07814 -3.49883,4.63905 -1.28287,4.7965 -9.98604,14.30067 -13.09544,14.30067 -0.91626,0 -2.06671,0.39368 -2.55655,0.87485 -0.48985,0.48116 -2.57813,1.00851 -4.64063,1.17187 -2.95323,0.23392 -3.80871,0.70753 -4.02634,2.22906 -0.70045,4.8972 -22.29936,12.13995 -27.74062,9.30224 -2.91421,-1.51981 -5.26429,-0.59461 -5.26429,2.07248 0,4.06536 -15.86093,8.21247 -21.67163,5.66641 -3.40506,-1.49199 -13.45365,-2.1587 -12.63771,-0.83849 0.27059,0.43782 -2.55146,1.36122 -6.27122,2.05201 -3.71976,0.69079 -9.19496,2.39531 -12.16713,3.78783 -7.78093,3.64553 -32.67739,4.93516 -39.1953,2.03032 -2.28291,-1.01744 -5.35398,-2.13562 -6.82458,-2.48486 -1.4706,-0.34924 -4.8456,-2.25107 -7.5,-4.22628 -2.6544,-1.97522 -8.83399,-5.34542 -13.73243,-7.48934 -4.89844,-2.14393 -11.22656,-5.5571 -14.0625,-7.58482 -6.47975,-4.63309 -13.44051,-7.96051 -13.88202,-6.63596 -0.89337,2.6801 -15.63255,-8.30961 -21.13736,-15.76028 -3.09638,-4.19088 -4.337178,-5.19708 -6.101038,-4.94748 -4.1069,0.58114 -15.368,-14.0555 -17.37172,-22.57894 -0.95593,-4.0663 1.88112,-3.24411 3.23492,0.9375 4.03653,12.46798 12.91651,22.9127 14.94472,17.57813 1.05541,-2.77594 2.812498,-3.10826 2.812498,-0.53193 0,0.9965 0.84375,2.07962 1.875,2.40693 1.03125,0.3273 1.875,0.90722 1.875,1.28869 0,2.75088 10.59893,12.79381 16.49671,15.63131 5.92279,2.84954 6.17673,2.84744 5.45077,-0.045 -0.67829,-2.7025 0.16707,-2.98318 2.53383,-0.84129 0.91311,0.82635 2.21195,1.31623 2.88632,1.08862 0.72484,-0.24464 0.005,-1.04783 -1.76136,-1.96457 -1.64312,-0.85291 -3.60436,-1.31403 -4.3583,-1.02471 -0.75395,0.28931 -1.64932,0.0754 -1.98972,-0.47539 -0.3404,-0.55077 -0.14724,-1.0014 0.42925,-1.0014 0.57649,0 0.78743,-0.42188 0.46875,-0.9375 -0.89646,-1.4505 0.62566,-1.11952 4.56755,0.9932 7.57888,4.06204 4.59153,0.0833 -4.32955,-5.76641 -2.44722,-1.60468 -4.21056,-3.30418 -3.91855,-3.77667 0.29201,-0.47249 1.86366,0.0978 3.49254,1.26728 3.24757,2.33165 4.59225,3.1813 8.94665,5.65302 2.38759,1.35528 2.81313,1.3999 2.37134,0.24862 -0.45799,-1.1935 -11.03944,-8.93154 -12.21351,-8.93154 -0.22062,0 -1.30199,-0.8393 -2.40307,-1.8651 -3.30152,-3.07584 -1.25912,-3.1153 3.54519,-0.0685 2.47162,1.56745 4.68685,2.6569 4.92274,2.42101 0.80242,-0.80242 -2.72778,-5.25621 -4.97934,-6.2821 -1.23342,-0.56198 -2.48393,-1.65069 -2.77888,-2.41934 -0.4473,-1.16564 -0.14473,-1.14099 1.82342,0.1486 2.70314,1.77116 3.02587,0.99618 0.86809,-2.08448 -1.57335,-2.24627 -4.95652,-12.30907 -6.89675,-20.51347 -1.01554,-4.29427 -1.96292,-5.6056 -7.86811,-10.89072 -7.71219,-6.90237 -20.368288,-19.77667 -25.506158,-25.94591 -1.93242,-2.32031 -3.97869,-4.07813 -4.54729,-3.90625 -0.56859,0.17188 -0.73538,0.0141 -0.37064,-0.35068 0.36475,-0.36474 -1.63915,-3.37703 -4.45313,-6.69397 -2.81396,-3.31694 -5.11824,-6.3232 -5.12063,-6.68058 -0.003,-0.35737 -1.17738,-1.9154 -2.61111,-3.46227 -2.39577,-2.58485 -5.94481,-7.52919 -10.90673,-15.19469 -1.07062,-1.65396 -2.31861,-3.02505 -2.77331,-3.04688 -1.27468,-0.0612 0.0707,28.77354 1.62752,34.88219 1.41154,5.53856 0.67752,7.4112 -1.10243,2.8125 -3.01377,-7.78646 -4.07873,-16.97539 -3.28064,-28.3068 l 0.79731,-11.32038 -2.96671,-5.57534 c -1.63169,-3.06643 -4.18648,-7.38665 -5.67729,-9.60047 -2.9886,-4.43798 -8.94618,-16.668585 -15.31797,-31.447015 -4.72716,-10.96393 -4.56481,-10.83123 -7.29917,-5.9661 -2.9489,5.24688 -2.63795,10.42093 1.14736,19.0911 2.08059,4.76556 2.76743,7.26563 1.99604,7.26563 -5.44853,0 -8.40949,-21.92615 -3.88291,-28.75342 l 2.59216,-3.90966 -5.16134,-13.43409 C 12.273052,35.985055 0.37928175,2.0784253 0.37928175,0.9235253 c 0,-3.8391 4.87110005,4.86976 16.78146025,30.0029397 z m 0.50655,11.29748 c 5.76737,15.26529 20.47875,49.57485 22.08866,51.51468 0.45019,0.54243 2.98591,5.19357 5.63494,10.335865 2.64903,5.14229 8.37074,14.26776 12.71491,20.27883 4.34416,6.01107 7.89848,11.1432 7.89848,11.40473 0,0.26154 0.82739,1.46059 1.83864,2.66454 1.01126,1.20396 3.98719,4.9233 6.61319,8.2652 2.62601,3.3419 6.43924,7.85228 8.47386,10.02306 2.03462,2.17078 3.7058,4.28806 3.71373,4.70507 0.0389,2.04498 26.837888,27.47694 28.953918,27.47694 0.56741,0 1.03166,0.35261 1.03166,0.78359 0,1.32176 13.80033,11.17906 24.76474,17.68896 9.45208,5.61198 17.09683,9.26937 27.18558,13.00608 2.01797,0.74743 4.2096,1.80758 4.87026,2.35588 0.66067,0.54831 2.17365,0.85273 3.3622,0.6765 2.02171,-0.29976 -7.1103,-5.44851 -9.6637,-5.44851 -1.79932,0 -19.596,-9.367 -27.08158,-14.25397 -26.13373,-17.06142 -51.456348,-42.5368 -72.496168,-72.93353 -7.18249,-10.37671 -14.08188,-21.2152 -17.0082,-26.71875 -1.91916,-3.60937 -4.2409,-7.406255 -5.15942,-8.437505 -0.91853,-1.03125 -8.1157,-15.4847 -15.99373,-32.11877 -7.87803,-16.63408 -14.45581,-30.11165 -14.6173,-29.95016 -0.16148,0.16148 1.13241,4.06806 2.87533,8.68127 z m 48.40795,54.41977 c 6.87251,7.373195 12.95031,11.745635 14.88639,10.709475 5.5739,-2.98306 -6.08426,-12.623035 -15.82389,-13.084565 -0.89208,-0.0423 -0.5809,0.74608 0.9375,2.37509 z M 307.41053,132.81075 c -0.51562,0.0166 -4.3125,-0.27083 -8.4375,-0.63881 l -7.5,-0.66904 -1.79576,3.39642 c -1.28027,2.42145 -2.25372,3.25106 -3.39114,2.89006 -1.88876,-0.59947 -6.88975,3.73793 -7.86969,6.82545 -0.36493,1.14979 -1.29104,2.09053 -2.05802,2.09053 -4.02298,0 -9.44163,3.67373 -9.52071,6.45484 -0.10876,3.82523 -2.26114,6.89449 -10.62254,15.14754 -8.23643,8.12969 -9.27074,10.71715 -7.01139,17.53979 1.17926,3.56107 1.28766,5.57682 0.54184,10.07658 -1.10031,6.63846 0.24795,14.36575 3.027,17.34871 2.11609,2.27135 2.05927,1.56987 1.8409,22.72941 -0.11179,10.83112 -0.51358,16.64063 -1.1509,16.64063 -0.66282,0 -0.8293,-5.8727 -0.51532,-18.1781 0.43952,-17.22492 0.36683,-18.26589 -1.38636,-19.85251 -3.17782,-2.87588 -4.86104,-10.74201 -4.15948,-19.43842 0.73919,-9.16309 0.10104,-10.37477 -6.35818,-12.07253 -3.54948,-0.93295 -4.82834,-0.93979 -6.09375,-0.0325 -2.51087,1.80015 -6.86744,3.68002 -11.21087,4.83756 -2.19141,0.584 -3.98438,1.61232 -3.98438,2.28515 0,0.67282 -0.87368,2.01399 -1.94153,2.98037 -1.06783,0.96637 -3.00166,4.07479 -4.29742,6.90758 -1.29575,2.8328 -3.3337,6.05673 -4.52879,7.1643 -5.0187,4.65117 -4.46214,25.49832 0.83734,31.36421 4.46847,4.94605 4.52658,7.64024 0.1284,5.9525 -2.98622,-1.14592 -6.15111,-10.72179 -6.23688,-18.87067 -0.0631,-5.98974 -1.02046,-7.24775 -3.22326,-4.23524 -1.06067,1.45055 -1.66075,1.49758 -5.61473,0.44005 -4.69497,-1.25572 -8.25621,-0.0752 -9.49256,3.14669 -0.32137,0.83743 -1.82766,1.35159 -3.95977,1.35159 -4.62997,0 -7.6083,2.20549 -7.6083,5.63405 0,4.30722 -1.84004,7.33429 -4.86165,7.99795 -1.84326,0.40484 -2.64476,1.1037 -2.47202,2.15542 0.14059,0.85598 -0.0876,2.10387 -0.50718,2.7731 -0.41954,0.66922 -0.44208,1.93484 -0.0501,2.8125 0.39195,0.87765 0.79336,2.43948 0.89199,3.47073 0.0986,1.03125 0.47109,3.14062 0.82768,4.6875 0.35657,1.54687 0.89445,4.5 1.19527,6.5625 l 0.54696,3.75 -2.29904,-2.10938 c -1.26448,-1.16015 -2.69373,-2.10263 -3.17612,-2.0944 -0.48239,0.008 0.49401,1.22395 2.1698,2.70158 3.2643,2.8783 3.91773,4.78345 1.64066,4.78345 -0.77344,0 -1.40625,-0.37674 -1.40625,-0.8372 0,-0.46046 -0.69248,-1.10293 -1.53885,-1.42771 -5.36082,-2.05714 2.41808,3.21086 9.97635,6.75615 l 8.90625,4.17758 10.3125,-0.16655 c 14.67235,-0.23696 17.98937,-0.78349 23.55723,-3.88139 2.8772,-1.60085 6.3299,-2.74588 8.27982,-2.74588 4.06072,0 6.94692,-1.63873 6.45032,-3.66237 -0.26246,-1.06953 1.17147,-2.13894 5.04801,-3.76472 7.34726,-3.08135 7.82764,-3.51865 6.8089,-6.19816 -2.82596,-7.43284 -5.15467,-36.06225 -2.93329,-36.06225 0.4426,0 1.03745,4.53515 1.32189,10.07812 0.50196,9.78229 3.0491,25.25531 4.40457,26.75628 0.36787,0.40736 2.7883,-0.68563 5.37873,-2.42886 2.59042,-1.74323 5.44983,-3.45346 6.35423,-3.80051 1.47358,-0.56547 1.57578,-1.54586 0.98396,-9.43956 -0.71046,-9.47631 0.22682,-27.97 1.38139,-27.25644 0.38671,0.239 0.54057,7.90294 0.34191,17.03099 -0.26905,12.36317 -0.0699,16.77647 0.7808,17.30223 0.85777,0.53013 0.74294,1.1467 -0.46137,2.47746 -0.88184,0.97442 -1.60335,2.20974 -1.60335,2.74515 0,1.09678 -4.99333,4.57069 -11.27096,7.84131 -6.96835,3.63049 -1.9575,3.15826 5.85474,-0.55176 8.66892,-4.11685 16.89639,-12.38616 21.28371,-21.39196 l 2.93075,-6.01589 -1.45036,-8.31391 c -1.82583,-10.46616 -2.81235,-29.17605 -1.69076,-32.06587 0.6033,-1.55443 1.16614,2.81636 1.94055,15.06952 1.7779,28.13099 5.69985,30.2937 5.88939,3.24762 0.0568,-8.10925 0.48517,-14.72142 0.95365,-14.72142 0.46776,0 0.75542,2.42578 0.63923,5.39062 -0.11619,2.96484 -0.11139,8.9365 0.0107,13.27035 l 0.2219,7.87972 3.88166,-6.00472 c 3.03874,-4.70078 3.9318,-7.02263 4.11256,-10.69222 0.127,-2.57813 0.71916,-7.21875 1.3159,-10.3125 1.91051,-9.90476 2.76669,-14.77933 4.36359,-24.84375 1.48954,-9.38777 3.20129,-14.35821 3.20129,-9.29565 0,3.0929 -4.3391,29.42498 -6.18904,37.55853 -1.97826,8.69775 -1.39492,9.45548 2.6909,3.49535 6.52855,-9.52339 12.39454,-29.00872 12.24191,-40.66448 -0.0877,-6.69796 -5.6e-4,-7.09897 0.81493,-3.75 1.31216,5.38868 0.26485,18.63146 -2.06463,26.10622 -2.6389,8.46761 -2.02322,8.60051 3.23077,0.69738 3.55289,-5.34431 18.55604,-21.64735 19.92134,-21.64735 0.9737,0 -2.14623,4.22393 -7.42736,10.05559 -6.69595,7.39394 -8.51727,9.57285 -12.3767,14.80665 -1.5134,2.05233 -3.75981,4.76982 -4.99202,6.03886 -1.95983,2.01842 -4.67433,7.08638 -5.292,9.88015 -0.89739,4.05894 -3.86481,12.76218 -5.33172,15.63756 -0.98388,1.92857 -1.78888,3.71924 -1.78888,3.97927 0,0.97069 9.03345,-3.44472 12.93098,-6.32046 6.22705,-4.59455 11.74356,-8.84468 13.5534,-10.44208 2.95262,-2.60604 1.73799,0.52123 -1.30736,3.36602 -5.31433,4.96433 -18.13451,13.74729 -23.58469,16.15762 -2.93828,1.29942 -5.34233,2.76778 -5.34233,3.263 0,0.49521 -1.47656,2.66772 -3.28125,4.82779 -4.06637,4.86712 -4.06386,4.90139 0.23438,3.20117 9.79375,-3.87405 24.92416,-13.4106 35.15625,-22.15865 6.49611,-5.55394 7.20223,-4.44435 0.9375,1.47319 -8.64329,8.16429 -16.05638,13.16732 -30.93592,20.87842 -12.80749,6.63729 -20.94799,12.42592 -17.57971,12.50076 2.64064,0.0587 10.81827,-3.16685 20.15625,-7.95028 14.9261,-7.64597 15.92894,-8.07567 15.35465,-6.57908 -0.29032,0.75657 -1.30074,1.62089 -2.24538,1.92071 -0.94463,0.29981 -3.33143,1.65222 -5.30401,3.00535 -6.30832,4.3273 -19.28008,10.34115 -27.49276,12.74592 -10.18683,2.98283 -12.23621,3.82599 -14.53125,5.97843 -1.03125,0.96717 -3.8789,3.18858 -6.32812,4.93645 -5.55989,3.96779 -5.54267,4.18369 0.27212,3.41234 5.12988,-0.68051 9.33725,-2.26446 9.33725,-3.51522 0,-0.43286 0.52735,-0.78703 1.17188,-0.78704 0.64453,-2e-5 2.35001,-1.47658 3.78996,-3.28125 2.96785,-3.71956 5.14547,-4.12912 7.47689,-1.40622 1.93552,2.26052 3.61131,2.33032 9.65989,0.40233 12.91154,-4.11556 12.51727,-3.82341 14.83085,-10.98964 0.44914,-1.3912 0.88186,-1.49954 2.50971,-0.62835 6.76237,3.61911 21.96707,-7.90072 21.96707,-16.64334 0,-4.23129 0.14398,-4.49008 2.54752,-4.57894 4.90883,-0.18149 11.7892,-12.30798 10.72037,-18.89441 -0.46504,-2.86571 0.0875,-4.37808 3.74125,-10.24028 5.88434,-9.44105 6.69257,-13.41001 3.75778,-18.4533 -1.99714,-3.43198 -2.20441,-4.69444 -1.7939,-10.92645 l 0.46414,-7.04613 -3.72643,-3.73512 c -2.04953,-2.05431 -4.04104,-4.78981 -4.42557,-6.07887 -1.2249,-4.10625 -3.25936,-6.5135 -6.73056,-7.96386 -4.1474,-1.7329 -3.87292,-1.74749 -4.31638,0.22949 -0.25853,1.1525 -0.84546,0.53994 -1.97275,-2.05891 -3.73019,-8.59957 -8.04234,-12.12104 -13.73422,-11.21588 -1.80469,0.287 -3.70312,0.53542 -4.21875,0.55205 z m 32.34375,60.80477 c 0,1.82297 -11.90848,13.68136 -12.82189,12.76795 -0.37711,-0.37711 2.35355,-3.72485 6.06812,-7.43943 3.71457,-3.71457 6.75377,-6.11241 6.75377,-5.32852 z m -23.90625,9.80532 c -5.15625,4.86697 -10.14507,9.1121 -11.08627,9.43362 -2.52217,0.86161 -3.26577,-0.47464 -1.09975,-1.97626 2.22263,-1.54088 8.35182,-6.83765 14.32092,-12.37597 2.36186,-2.19141 4.9571,-3.97223 5.7672,-3.9574 0.81009,0.0148 -2.74585,4.00904 -7.9021,8.87601 z m -46.53902,13.12827 c 0.0815,0.51562 0.57525,4.73437 1.09726,9.375 0.522,4.64062 1.19831,9.80859 1.50289,11.48437 0.31128,1.71263 0.15821,3.04688 -0.34957,3.04688 -1.09893,0 -3.41907,-18.09906 -2.82421,-22.03125 0.234,-1.54688 0.49214,-2.39063 0.57363,-1.875 z m -35.15912,11.01562 c 0.29799,1.67578 0.81035,6.42188 1.13858,10.54688 0.32823,4.125 1.397,10.73435 2.37505,14.68745 1.95852,7.91604 2.20439,10.07574 0.99079,8.70317 -2.02344,-2.28848 -4.83546,-15.76252 -5.41966,-25.96875 -0.61014,-10.65934 -0.19928,-14.23658 0.91524,-7.96875 z m -36.89561,-1.01106 c 0,5.79506 7.21786,17.78046 15.21407,25.26327 3.27421,3.06399 5.21108,5.52627 4.62969,5.88559 -0.94478,0.58391 -14.21876,-11.49965 -14.21876,-12.94362 0,-0.37326 -1.05469,-2.06142 -2.34375,-3.75147 -1.28906,-1.69005 -2.3587,-3.87675 -2.37697,-4.85933 -0.0183,-0.98258 -0.63614,-2.84119 -1.37303,-4.13025 -1.55649,-2.72281 -1.83076,-6.5625 -0.46875,-6.5625 0.51563,0 0.9375,0.49424 0.9375,1.09831 z m 23.77364,10.25188 c 2.23053,7.66073 3.17069,10.53172 5.00917,15.29649 1.17841,3.05411 2.0164,5.67911 1.86218,5.83333 -1.04119,1.04118 -6.47229,-10.58925 -7.27633,-15.58187 -0.84613,-5.25401 -0.57818,-8.92464 0.40498,-5.54795 z m -7.36739,22.89301 c 3.88436,2.39245 8.90625,3.10686 8.90625,1.267 0,-0.73049 0.42688,-0.69801 1.39593,0.10623 3.13641,2.60299 -1.50824,3.70365 -7.95843,1.88592 -3.67339,-1.0352 -9.7684,-5.55719 -7.5,-5.56438 0.77344,-0.002 3.09375,1.0349 5.15625,2.30523 z m -30,5.19134 c 11.60631,4.12652 20.12957,4.8073 29.56006,2.36107 4.86965,-1.26317 6.6144,-1.25133 5.32691,0.0362 -4.87792,4.87792 -26.64412,3.97355 -38.84359,-1.61392 -3.26375,-1.49482 -6.3205,-2.71786 -6.79278,-2.71786 -0.47228,0 -1.11942,-0.42188 -1.4381,-0.9375 -0.94353,-1.52666 1.30796,-0.99609 12.1875,2.87204 z m 12.2342,-77.0101 c -0.293,0.47407 1.0532,1.37542 2.99154,2.00299 1.93835,0.62757 5.52817,2.14524 7.97739,3.37259 2.44921,1.22736 4.45312,1.84385 4.45312,1.36998 0,-0.47387 -1.16016,-1.2879 -2.57812,-1.80895 -1.41797,-0.52105 -4.05469,-2.0182 -5.85938,-3.32699 -3.41312,-2.47526 -6.07101,-3.08777 -6.98455,-1.60962 z m -8.01545,0.53647 c 0,0.91846 20.83876,10.88649 21.42698,10.24939 0.33235,-0.35997 -0.0285,-0.87345 -0.80198,-1.14106 -0.77344,-0.26761 -4.84546,-2.28035 -9.04895,-4.47276 -4.20348,-2.1924 -8.42223,-4.18707 -9.375,-4.43259 -0.95276,-0.24551 -1.83777,-0.49533 -1.96667,-0.55514 -0.12891,-0.0598 -0.23438,0.0987 -0.23438,0.35216 z m -68.34908,9.93394 c 0.56889,1.75939 1.57201,4.46452 2.22916,6.0114 0.65714,1.54687 1.91328,4.75065 2.79143,7.11951 1.34474,3.62755 2.64173,4.99915 8.2214,8.69429 8.89366,5.88985 9.85802,4.27584 1.20084,-2.00981 -3.54548,-2.57425 -7.0158,-5.83524 -6.20979,-5.83524 1.62105,0 5.74104,2.12635 5.74104,2.96298 0,0.43286 0.44678,0.78702 0.99283,0.78702 0.54606,0 0.7321,-0.42188 0.41342,-0.9375 -0.31868,-0.51563 -0.0272,-0.93675 0.64779,-0.93583 0.67497,9.2e-4 1.86002,1.09261 2.63346,2.42598 1.97527,3.40526 27.31048,16.32235 32.0142,16.32235 1.91124,0 -1.03758,-2.59987 -3.69328,-3.25622 -3.7203,-0.91946 -16.84666,-7.71141 -21.99496,-11.38082 -2.45042,-1.7465 -4.81081,-3.17546 -5.24533,-3.17546 -0.43451,0 -1.55361,-0.84375 -2.48688,-1.875 -2.63064,-2.90684 -0.12263,-2.25276 6.34507,1.65475 10.70637,6.46833 27.9732,13.55823 29.44222,12.0892 0.96319,-0.96318 0.16416,-1.39626 -7.27552,-3.94345 -10.55555,-3.61398 -10.02528,-3.33091 -7.88677,-4.21024 1.56457,-0.64333 1.60717,-0.78189 0.25732,-0.83687 -3.79809,-0.15471 -33.88455,-17.91566 -37.18779,-21.95308 -1.83138,-2.23842 -2.1579,-1.45394 -0.94986,2.28204 z m 43.97408,-2.05439 c 0,1.85326 24.19913,15.09704 27.58541,15.09704 0.61871,0 2.78618,0.79165 4.81662,1.75922 6.16908,2.93977 9.03259,3.52138 5.56672,1.13066 -1.54687,-1.06702 -3.27463,-1.94281 -3.83945,-1.94621 -1.44005,-0.009 -22.91086,-10.99413 -24.76201,-12.6694 -0.83686,-0.75735 -2.86499,-1.64569 -4.50693,-1.97408 -1.64195,-0.32839 -2.98536,-0.96621 -2.98536,-1.41738 0,-0.45117 -0.42187,-0.82031 -0.9375,-0.82031 -0.51562,0 -0.9375,0.3782 -0.9375,0.84046 z m -8.4375,0.56579 c 0.6419,0.77343 1.51615,1.40625 1.94279,1.40625 0.42665,0 2.65527,1.2685 4.95251,2.81889 4.26944,2.8814 20.66492,11.26566 21.93344,11.21623 0.38638,-0.0151 -2.67249,-1.80976 -6.79749,-3.98824 -4.125,-2.17847 -9.54958,-5.43569 -12.05462,-7.23825 -7.76277,-5.58589 -12.92418,-7.76646 -9.97663,-4.21488 z m 22.97288,2.35041 c 0.93677,1.51576 10.77712,6.21025 10.77712,5.14141 0,-0.35742 -10.15441,-5.89782 -11.07096,-6.04048 -0.15933,-0.0248 -0.0271,0.37978 0.29384,0.89907 z m 15.93337,7.98258 c 2.57813,1.2145 5.32031,2.21441 6.09375,2.22203 0.77344,0.008 -0.91406,-0.98442 -3.75,-2.20452 -6.67912,-2.87355 -8.43434,-2.88666 -2.34375,-0.0175 z m 102.65625,7.59551 c 0,0.64014 -0.76057,1.40529 -1.69016,1.70033 -3.33735,1.05923 -16.5218,23.1654 -15.95979,26.75955 0.40004,2.55836 6.33709,-4.91626 12.81659,-16.13582 4.56328,-7.90153 9.11598,-19.10403 6.22108,-15.30776 -0.76324,1.0009 -1.38772,2.34356 -1.38772,2.9837 z M 185.4332,213.10229 c 0.2624,0.42456 2.23435,1.35188 4.38212,2.06071 2.14777,0.70883 4.37977,2.04896 4.96,2.97807 1.03333,1.65461 4.35396,2.39217 4.35396,0.96707 0,-0.7169 -11.96143,-6.75278 -13.41471,-6.76921 -0.41715,-0.005 -0.54376,0.3388 -0.28137,0.76336 z m -57.15432,9.32268 c 0.52581,1.65667 3.56807,3.88791 13.05048,9.5714 6.07198,3.63937 2.46492,-0.56476 -5.77384,-6.72957 -7.40465,-5.54067 -8.23631,-5.86547 -7.27664,-2.84183 z m 15.13384,3.13505 c 0.35425,0.57319 3.01587,2.08387 5.9147,3.35705 2.89884,1.27319 7.68046,3.53189 10.62584,5.01935 2.94537,1.48745 5.57356,2.35115 5.84044,1.91934 0.26688,-0.43182 -1.35772,-1.48896 -3.61024,-2.3492 -2.25251,-0.86024 -7.41196,-3.22835 -11.46545,-5.26247 -8.26317,-4.14661 -8.19333,-4.12095 -7.30529,-2.68407 z m -10.49629,5.67337 c 0.79034,1.20489 3.03889,3.01678 4.99679,4.02642 1.95789,1.00963 4.67963,2.59166 6.04828,3.51562 3.43734,2.32049 5.48066,2.20113 3.09853,-0.18099 -5.04248,-5.04248 -16.55188,-11.03256 -14.1436,-7.36105 z m 14.65035,3.46894 c 0,0.91014 9.33832,5.26614 13.48161,6.2887 2.06941,0.51073 2.60018,0.36595 2.27166,-0.61962 -0.23578,-0.70733 -1.99936,-1.65751 -3.91907,-2.11151 -1.91971,-0.454 -5.05133,-1.60551 -6.95916,-2.5589 -3.92744,-1.96263 -4.87504,-2.15675 -4.87504,-0.99867 z m -9.375,4.77901 c 0,1.86807 4.03712,4.53661 10.57762,6.99183 3.72137,1.39695 8.15154,3.14568 9.84481,3.88605 8.91241,3.8969 4.60903,0.47014 -6.35993,-5.06437 -14.00523,-7.06649 -14.0625,-7.09017 -14.0625,-5.81351 z m 12.84569,1.8822 c 0.42498,1.62511 8.64474,5.65432 11.53506,5.65432 2.15043,0 -0.50848,-2.83138 -3.60428,-3.83806 -1.88799,-0.61393 -4.26487,-1.68902 -5.28195,-2.38909 -2.53549,-1.74523 -3.21649,-1.59796 -2.64883,0.57283 z m -7.76376,6.6428 c 3.05288,1.51464 5.71538,2.5892 5.91667,2.38791 0.44898,-0.44897 -9.22352,-5.19101 -10.52985,-5.16236 -0.51562,0.0113 1.56031,1.25981 4.61318,2.77445 z m -9.63311,-1.47716 c 1.05669,1.05668 12.39251,8.1247 15.90224,9.91524 4.17611,2.13048 6.09391,1.87818 2.5584,-0.33659 -9.4126,-5.89639 -20.56502,-11.68303 -18.46064,-9.57865 z m 21.21446,7.05468 c 1.68825,1.02932 3.79762,1.86043 4.6875,1.84691 0.88989,-0.0135 -0.0696,-0.82312 -2.13203,-1.79911 -4.98047,-2.3568 -6.38568,-2.38308 -2.55547,-0.0478 z m -12.91328,3.21124 c 0,0.68368 13.47399,7.06127 13.93803,6.59723 0.24034,-0.24034 0.26119,-0.54244 0.0463,-0.67135 -6.60561,-3.9634 -13.98433,-7.09013 -13.98433,-5.92588 z M 28.874802,83.506165 c 0.31184,0.81265 0.56698,5.00152 0.56698,9.30859 0,4.30707 0.40576,8.898255 0.90168,10.202635 0.95347,2.50784 -0.2314,4.28095 -1.49475,2.23682 -0.91396,-1.47882 -1.96044,-22.350665 -1.14579,-22.852765 0.33268,-0.20505 0.86003,0.29208 1.17188,1.10472 z m -6.90835,16.08982 c 0.0136,1.933595 0.81015,6.468755 1.77017,10.078125 1.73367,6.51789 1.63416,9.77479 -0.19859,6.49987 -0.52622,-0.94032 -1.09872,-2.57653 -1.27222,-3.63602 -0.1735,-1.05949 -1.00344,-4.54195 -1.84431,-7.73878 -1.51177,-5.747545 -1.32319,-8.718825 0.55336,-8.718825 0.53181,0 0.97802,1.58203 0.99159,3.51563 z m 19.20727,13.112345 c 0.34102,2.9718 1.42677,10.75401 2.4128,17.2938 2.01622,13.37263 2.299,19.07481 0.82025,16.54049 -2.96294,-5.07798 -7.0107,-37.28605 -4.85348,-38.61929 0.64203,-0.3968 1.22252,1.31736 1.62043,4.785 z m 29.98681,4.1798 c 1.03125,0.58478 2.08594,1.31263 2.34375,1.61745 0.25781,0.30481 2.15625,1.8047 4.21875,3.33309 5.36491,3.9756 5.21549,3.85463 9.84375,7.96941 2.32031,2.06288 6.11719,4.68643 8.4375,5.8301 2.32031,1.14367 6.749998,3.91272 9.843748,6.15344 3.09375,2.24073 7.41797,5.20913 9.60938,6.59644 4.13103,2.61524 4.99888,3.9423 2.57812,3.9423 -0.77344,0 -1.40625,-0.46701 -1.40625,-1.0378 0,-0.57079 -0.62127,-0.7994 -1.38059,-0.50802 -0.77411,0.29705 -1.9436,-0.27402 -2.66222,-1.29998 -0.70489,-1.00638 -1.52406,-1.58734 -1.82036,-1.29103 -2.40361,2.40361 -44.183268,-28.63203 -42.408878,-31.50305 0.6815,-1.1027 0.48585,-1.1165 2.8033,0.19765 z m -41.88893,4.2441 c 0.47376,0.91679 1.08605,4.40907 1.36066,7.76063 0.5856,7.14741 4.32887,16.23967 8.13141,19.75085 2.01009,1.85607 2.75784,3.61577 3.26652,7.68707 0.4119,3.29676 1.51412,6.44216 2.93448,8.37415 1.25114,1.7018 2.87262,4.3598 3.60329,5.90668 3.18512,6.74309 7.17254,9.7621 8.4605,6.40573 0.46038,-1.19971 0.85656,-1.30624 1.70447,-0.45833 0.84791,0.84791 0.64111,1.56826 -0.88971,3.09908 l -1.99439,1.99439 -2.65665,-2.06029 c -5.31392,-4.12105 -10.04216,-11.87827 -13.47397,-22.10558 -1.21112,-3.60938 -2.91756,-7.40625 -3.79208,-8.4375 -5.72091,-6.74626 -11.60211,-27.05837 -8.40638,-29.03343 0.48975,-0.30269 1.27808,0.19976 1.75185,1.11655 z m 31.42736,31.67223 c 0.56235,6.65256 3.00071,17.5525 5.18201,23.16459 0.55503,1.42798 0.62691,2.76882 0.16377,3.05505 -0.45396,0.28057 -1.11937,-0.86465 -1.47868,-2.54493 -0.35931,-1.68028 -0.99363,-3.48062 -1.4096,-4.00073 -2.26191,-2.82827 -5.82663,-26.71058 -3.98687,-26.71058 0.51401,0 1.20223,3.16647 1.52937,7.0366 z m 4.82591,0.69777 c 0.90379,8.24625 3.08167,17.90199 5.72192,25.36838 1.24162,3.5112 2.25749,6.87459 2.25749,7.47421 0,1.74231 -2.8737,-2.84409 -3.85563,-6.15353 -5.09796,-17.18204 -7.80829,-32.54843 -5.74088,-32.54843 0.5362,0 1.2639,2.63672 1.6171,5.85937 z m 63.716838,4.07329 c 5.35555,3.22931 7.56712,4.78037 12.70007,8.90713 l 2.34375,1.88431 -2.34375,-0.6484 c -4.11477,-1.13835 -21.59694,-13.39766 -19.21875,-13.47708 0.51563,-0.0172 3.44903,1.48311 6.51868,3.33404 z m -56.843908,1.42575 c 0.0929,1.3487 1.43191,7.25495 2.9755,13.125 3.066,11.65955 3.53826,15.31117 1.31968,10.20409 -2.71172,-6.24231 -5.15566,-17.15794 -4.80911,-21.4795 0.18972,-2.36596 0.42099,-3.19827 0.51393,-1.84959 z m 40.950228,11.02571 c 2.57813,0.93031 7.42969,2.95291 10.78125,4.49467 5.17641,2.3812 9.42774,4.0744 25.78125,10.26802 1.71744,0.65046 1.67543,0.7381 -0.50009,1.04308 -3.71717,0.5211 -37.20436,-13.17559 -40.6587,-16.62993 -1.22387,-1.22387 -0.93652,-1.17234 4.59629,0.82416 z m -23.629668,9.2565 c 1.57446,8.29423 6.71132,25.20647 8.20151,27.00204 1.42026,1.7113 3.787118,7.91991 3.018868,7.91888 -2.339068,-0.003 -9.915678,-18.83441 -11.504068,-28.59279 -0.41965,-2.57813 -1.0608,-5.63672 -1.42478,-6.79688 -0.38448,-1.22545 -0.26771,-2.10937 0.27864,-2.10937 0.51724,0 1.16067,1.16016 1.42983,2.57812 z m -26.83926,5.78125 c 2.16002,5.80794 6.7389,12.84925 11.43376,17.58263 3.90481,3.93686 4.83187,5.933 2.75544,5.933 -3.86759,0 -18.56402,-20.40489 -18.56402,-25.77475 0,-3.62762 2.70497,-2.23079 4.37482,2.25912 z m 38.432758,5.46875 c 6.12914,14.73949 9.88026,22.97739 12.4315,27.3011 4.10812,6.96222 2.93439,7.13906 -1.64308,0.24755 -5.22167,-7.86137 -9.83,-17.27091 -12.114578,-24.73615 -2.0593,-6.72916 -1.12578,-8.70898 1.326158,-2.8125 z" />
</svg>
